<svg width="307" height="286" viewBox="0 0 307 286" fill="none" xmlns="http://www.w3.org/2000/svg" xmlns:c2pa="http://c2pa.org/manifest"><metadata><c2pa:manifest>AAAWgmp1bWIAAAAeanVtZGMycGEAEQAQgAAAqgA4m3EDYzJwYQAAABZcanVtYgAAAEdqdW1kYzJtYQARABCAAACqADibcQN1cm46YzJwYTowNGFkMGY2NC02MWJjLTQ4MTUtYTc3Yi1jYmZmMjI2ZGQ1YmIAAAADl2p1bWIAAAApanVtZGMyYXMAEQAQgAAAqgA4m3EDYzJwYS5hc3NlcnRpb25zAAAAALxqdW1iAAAARGp1bWRjYm9yABEAEIAAAKoAOJtxE2MycGEuaW5ncmVkaWVudC52MwAAAAAYYzJzaHEMUQa5RFFK8ZNOq68aI84AAABwY2JvcqNpZGM6Zm9ybWF0bWltYWdlL3N2Zyt4bWxqaW5zdGFuY2VJRHgseG1wOmlpZDo5ZGZhM2FmYS1hYjkxLTQ1YmUtOThmNS0xZGVkMjRhYzI0ZjBscmVsYXRpb25zaGlwaHBhcmVudE9mAAAB4mp1bWIAAABBanVtZGNib3IAEQAQgAAAqgA4m3ETYzJwYS5hY3Rpb25zLnYyAAAAABhjMnNoLyUykmOcU1EiB/xMQfsPxAAAAZljYm9yomdhY3Rpb25zgqJmYWN0aW9ua2MycGEub3BlbmVkanBhcmFtZXRlcnOha2luZ3JlZGllbnRzgaJjdXJseC1zZWxmI2p1bWJmPWMycGEuYXNzZXJ0aW9ucy9jMnBhLmluZ3JlZGllbnQudjNkaGFzaFggnxxFqk1LUDUT9mS3MEyQJYMt/32jLrvjtNQhcqHWWJykZmFjdGlvbngdY29tLmFudGhyb3BpYy5jbGF1ZGUucHJvdmlkZWRqcGFyYW1ldGVyc6F4H2NvbS5hbnRocm9waWMub3JpZ2luLWNvbmZpZGVuY2VndW5rbm93bmtkZXNjcmlwdGlvbnhmQ2xhdWRlIHByb3ZpZGVkIHRoaXMgZmlsZSBhdCB0aGUgcmVxdWVzdCBvZiBhIHVzZXIgYW5kIG1heSBoYXZlIGNyZWF0ZWQgb3IgbW9kaWZpZWQgdGhlIGZpbGUgY29udGVudHMubXNvZnR3YXJlQWdlbnShZG5hbWVmQ2xhdWRlcmFsbEFjdGlvbnNJbmNsdWRlZPUAAADIanVtYgAAAEBqdW1kY2JvcgARABCAAACqADibcRNjMnBhLmhhc2guZGF0YQAAAAAYYzJzaNbPm7gIqOJa86veu2lvSmkAAACAY2JvcqVjYWxnZnNoYTI1NmNwYWRNAAAAAAAAAAAAAAAAAGRoYXNoWCBl/o+GbfLKsZn+dSayJGB57yMXGnB4AIJJck1dED74Q2RuYW1lbmp1bWJmIG1hbmlmZXN0amV4Y2x1c2lvbnOBomVzdGFydBiiZmxlbmd0aBkeBAAAAj5qdW1iAAAAJ2p1bWRjMmNsABEAEIAAAKoAOJtxA2MycGEuY2xhaW0udjIAAAACD2Nib3KlY2FsZ2ZzaGEyNTZpc2lnbmF0dXJleE1zZWxmI2p1bWJmPS9jMnBhL3VybjpjMnBhOjA0YWQwZjY0LTYxYmMtNDgxNS1hNzdiLWNiZmYyMjZkZDViYi9jMnBhLnNpZ25hdHVyZWppbnN0YW5jZUlEeCx4bXA6aWlkOjIxNWU5M2E3LTgyYjktNGMxMi05YWEzLTJjMGQyYzgzODk5NXJjcmVhdGVkX2Fzc2VydGlvbnODomN1cmx4LXNlbGYjanVtYmY9YzJwYS5hc3NlcnRpb25zL2MycGEuaW5ncmVkaWVudC52M2RoYXNoWCCfHEWqTUtQNRP2ZLcwTJAlgy3/faMuu+O01CFyodZYnKJjdXJseCpzZWxmI2p1bWJmPWMycGEuYXNzZXJ0aW9ucy9jMnBhLmFjdGlvbnMudjJkaGFzaFggPKK3oClMYysVqc6UwDa3g6t9CD63fQqvxuObqmcX9wmiY3VybHgpc2VsZiNqdW1iZj1jMnBhLmFzc2VydGlvbnMvYzJwYS5oYXNoLmRhdGFkaGFzaFgg354bycGy+2iL+QwPCzpy5IFhCnMl6oiUO/sZgNRG3fh0Y2xhaW1fZ2VuZXJhdG9yX2luZm+jZG5hbWVvQW50aHJvcGljIEZpbGVzZ3ZlcnNpb25lMS4wLjBrc3BlY1ZlcnNpb25lMi40LjAAABA4anVtYgAAAChqdW1kYzJjcwARABCAAACqADibcQNjMnBhLnNpZ25hdHVyZQAAABAIY2JvctKEWQISogEmGCFZAgowggIGMIIBjaADAgECAhRA5aAK7sI50L64g/oGQgU9Z1UTADAKBggqhkjOPQQDAzBJMRcwFQYDVQQKEw5BbnRocm9waWMsIFBCQzEuMCwGA1UEAxMlQW50aHJvcGljIENvbnRlbnQgQ3JlZGVudGlhbHMgUm9vdCBDQTAeFw0yNjA4MDcxODQzNTZaFw0yODA4MDYxOTQzNTZaMEQxFzAVBgNVBAoTDkFudGhyb3BpYywgUEJDMSkwJwYDVQQDEyBBbnRocm9waWMgQ2xhdWRlIENvbnRlbnQgU2lnbmluZzBZMBMGByqGSM49AgEGCCqGSM49AwEHA0IABJh6CmvLUBgFFNU0vUKlOVtE6djd17L5SuwX0LemFisBM3dkd/3cyjxFA3Qo5S46fX0/ihY0VZ7mfb9KF703t5OjWDBWMA4GA1UdDwEB/wQEAwIHgDAVBgNVHSUEDjAMBgorBgEEAYPoXgIBMAwGA1UdEwEB/wQCMAAwHwYDVR0jBBgwFoAUzlHiBIFOZFsj+OPEz5o+nMHXXMIwCgYIKoZIzj0EAwMDZwAwZAIwMXMdFJ4BetLLVY7ORuE9noqbbAZOZn/aArXyTwFAZfKrPzxF2vPoJNf1+UCdg1XGAjBwX1zd9WGqYkqmL5SFqw1QySjr1zJfpJM9+1rdDwSPLMOPOjKuiXjoU/pUUeG9RwmhY3BhZFkNngAAAAAAAAAAAAAAAAAAAAAAAAAAAAAAAAAAAAAAAAAAAAAAAAAAAAAAAAAAAAAAAAAAAAAAAAAAAAAAAAAAAAAAAAAAAAAAAAAAAAAAAAAAAAAAAAAAAAAAAAAAAAAAAAAAAAAAAAAAAAAAAAAAAAAAAAAAAAAAAAAAAAAAAAAAAAAAAAAAAAAAAAAAAAAAAAAAAAAAAAAAAAAAAAAAAAAAAAAAAAAAAAAAAAAAAAAAAAAAAAAAAAAAAAAAAAAAAAAAAAAAAAAAAAAAAAAAAAAAAAAAAAAAAAAAAAAAAAAAAAAAAAAAAAAAAAAAAAAAAAAAAAAAAAAAAAAAAAAAAAAAAAAAAAAAAAAAAAAAAAAAAAAAAAAAAAAAAAAAAAAAAAAAAAAAAAAAAAAAAAAAAAAAAAAAAAAAAAAAAAAAAAAAAAAAAAAAAAAAAAAAAAAAAAAAAAAAAAAAAAAAAAAAAAAAAAAAAAAAAAAAAAAAAAAAAAAAAAAAAAAAAAAAAAAAAAAAAAAAAAAAAAAAAAAAAAAAAAAAAAAAAAAAAAAAAAAAAAAAAAAAAAAAAAAAAAAAAAAAAAAAAAAAAAAAAAAAAAAAAAAAAAAAAAAAAAAAAAAAAAAAAAAAAAAAAAAAAAAAAAAAAAAAAAAAAAAAAAAAAAAAAAAAAAAAAAAAAAAAAAAAAAAAAAAAAAAAAAAAAAAAAAAAAAAAAAAAAAAAAAAAAAAAAAAAAAAAAAAAAAAAAAAAAAAAAAAAAAAAAAAAAAAAAAAAAAAAAAAAAAAAAAAAAAAAAAAAAAAAAAAAAAAAAAAAAAAAAAAAAAAAAAAAAAAAAAAAAAAAAAAAAAAAAAAAAAAAAAAAAAAAAAAAAAAAAAAAAAAAAAAAAAAAAAAAAAAAAAAAAAAAAAAAAAAAAAAAAAAAAAAAAAAAAAAAAAAAAAAAAAAAAAAAAAAAAAAAAAAAAAAAAAAAAAAAAAAAAAAAAAAAAAAAAAAAAAAAAAAAAAAAAAAAAAAAAAAAAAAAAAAAAAAAAAAAAAAAAAAAAAAAAAAAAAAAAAAAAAAAAAAAAAAAAAAAAAAAAAAAAAAAAAAAAAAAAAAAAAAAAAAAAAAAAAAAAAAAAAAAAAAAAAAAAAAAAAAAAAAAAAAAAAAAAAAAAAAAAAAAAAAAAAAAAAAAAAAAAAAAAAAAAAAAAAAAAAAAAAAAAAAAAAAAAAAAAAAAAAAAAAAAAAAAAAAAAAAAAAAAAAAAAAAAAAAAAAAAAAAAAAAAAAAAAAAAAAAAAAAAAAAAAAAAAAAAAAAAAAAAAAAAAAAAAAAAAAAAAAAAAAAAAAAAAAAAAAAAAAAAAAAAAAAAAAAAAAAAAAAAAAAAAAAAAAAAAAAAAAAAAAAAAAAAAAAAAAAAAAAAAAAAAAAAAAAAAAAAAAAAAAAAAAAAAAAAAAAAAAAAAAAAAAAAAAAAAAAAAAAAAAAAAAAAAAAAAAAAAAAAAAAAAAAAAAAAAAAAAAAAAAAAAAAAAAAAAAAAAAAAAAAAAAAAAAAAAAAAAAAAAAAAAAAAAAAAAAAAAAAAAAAAAAAAAAAAAAAAAAAAAAAAAAAAAAAAAAAAAAAAAAAAAAAAAAAAAAAAAAAAAAAAAAAAAAAAAAAAAAAAAAAAAAAAAAAAAAAAAAAAAAAAAAAAAAAAAAAAAAAAAAAAAAAAAAAAAAAAAAAAAAAAAAAAAAAAAAAAAAAAAAAAAAAAAAAAAAAAAAAAAAAAAAAAAAAAAAAAAAAAAAAAAAAAAAAAAAAAAAAAAAAAAAAAAAAAAAAAAAAAAAAAAAAAAAAAAAAAAAAAAAAAAAAAAAAAAAAAAAAAAAAAAAAAAAAAAAAAAAAAAAAAAAAAAAAAAAAAAAAAAAAAAAAAAAAAAAAAAAAAAAAAAAAAAAAAAAAAAAAAAAAAAAAAAAAAAAAAAAAAAAAAAAAAAAAAAAAAAAAAAAAAAAAAAAAAAAAAAAAAAAAAAAAAAAAAAAAAAAAAAAAAAAAAAAAAAAAAAAAAAAAAAAAAAAAAAAAAAAAAAAAAAAAAAAAAAAAAAAAAAAAAAAAAAAAAAAAAAAAAAAAAAAAAAAAAAAAAAAAAAAAAAAAAAAAAAAAAAAAAAAAAAAAAAAAAAAAAAAAAAAAAAAAAAAAAAAAAAAAAAAAAAAAAAAAAAAAAAAAAAAAAAAAAAAAAAAAAAAAAAAAAAAAAAAAAAAAAAAAAAAAAAAAAAAAAAAAAAAAAAAAAAAAAAAAAAAAAAAAAAAAAAAAAAAAAAAAAAAAAAAAAAAAAAAAAAAAAAAAAAAAAAAAAAAAAAAAAAAAAAAAAAAAAAAAAAAAAAAAAAAAAAAAAAAAAAAAAAAAAAAAAAAAAAAAAAAAAAAAAAAAAAAAAAAAAAAAAAAAAAAAAAAAAAAAAAAAAAAAAAAAAAAAAAAAAAAAAAAAAAAAAAAAAAAAAAAAAAAAAAAAAAAAAAAAAAAAAAAAAAAAAAAAAAAAAAAAAAAAAAAAAAAAAAAAAAAAAAAAAAAAAAAAAAAAAAAAAAAAAAAAAAAAAAAAAAAAAAAAAAAAAAAAAAAAAAAAAAAAAAAAAAAAAAAAAAAAAAAAAAAAAAAAAAAAAAAAAAAAAAAAAAAAAAAAAAAAAAAAAAAAAAAAAAAAAAAAAAAAAAAAAAAAAAAAAAAAAAAAAAAAAAAAAAAAAAAAAAAAAAAAAAAAAAAAAAAAAAAAAAAAAAAAAAAAAAAAAAAAAAAAAAAAAAAAAAAAAAAAAAAAAAAAAAAAAAAAAAAAAAAAAAAAAAAAAAAAAAAAAAAAAAAAAAAAAAAAAAAAAAAAAAAAAAAAAAAAAAAAAAAAAAAAAAAAAAAAAAAAAAAAAAAAAAAAAAAAAAAAAAAAAAAAAAAAAAAAAAAAAAAAAAAAAAAAAAAAAAAAAAAAAAAAAAAAAAAAAAAAAAAAAAAAAAAAAAAAAAAAAAAAAAAAAAAAAAAAAAAAAAAAAAAAAAAAAAAAAAAAAAAAAAAAAAAAAAAAAAAAAAAAAAAAAAAAAAAAAAAAAAAAAAAAAAAAAAAAAAAAAAAAAAAAAAAAAAAAAAAAAAAAAAAAAAAAAAAAAAAAAAAAAAAAAAAAAAAAAAAAAAAAAAAAAAAAAAAAAAAAAAAAAAAAAAAAAAAAAAAAAAAAAAAAAAAAAAAAAAAAAAAAAAAAAAAAAAAAAAAAAAAAAAAAAAAAAAAAAAAAAAAAAAAAAAAAAAAAAAAAAAAAAAAAAAAAAAAAAAAAAAAAAAAAAAAAAAAAAAAAAAAAAAAAAAAAAAAAAAAAAAAAAAAAAAAAAAAAAAAAAAAAAAAAAAAAAAAAAAAAAAAAAAAAAAAAAAAAAAAAAAAAAAAAAAAAAAAAAAAAAAAAAAAAAAAAAAAAAAAAAAAAAAAAAAAAAAAAAAAAAAAAAAAAAAAAAAAAAAAAAAAAAAAAAAAAAAAAAAAAAAAAAAAAAAAAAAAAAAAAAAAAAAAAAAAAAAAAAAAAAAAAAAAAAAAAAAAAAAAAAAAAAAAAAAAAAAAAAAAAAAAAAAAAAAAAAAAAAAAAAAAAAAAAAAAAAAAAAAAAAAAAAAAAAAAAAAAAAAAAAAAAAAAAAAAAAAAAAAAAAAAAAAAAAAAAAAAAAAAAAAAAAAAAAAAAAAAAAAAAAAAAAAAAAAAAAAAAAAAAAAAAAAAAAAAAAAAAAAAAAAAAAAAAAAAAAAAAAAAAAAAAAAAAAAAAAAAAAAAAAAAAAAAAAAAAAAAAAAAAAAAAAAAAAAAAAAAAAAAAAAAAAAAAAAAAAAAAAAAAAAAAAAAAAAAAAAAAAAAAAAAAAAAAAAAAAAAAAAAAAAAAAAAAAAAAAAAAAAAAAAAAAAAAAAAAAAAAAAAAAAAAAAAAAAAAAAAAAAAAAAAAAAAAAAAAAAAAAAAAAAAAAAAAAAAAAAAAAAAAAAAAAAAAAAAAAAAAAAAAAAAAAAAAAAAAAAAAAAAAAAAAAAAAAAAAAAAAAAAAAAAAAAAAAAAAAAAAAAAAAAAAAAAAAAAAAAAAAAAAAAAAAAAAAAAAAAAAAAAAAAAAAAAAAAAAAAAAAAAAAAAAAAAAAAAAAAAAAAAAAAAAAAAAAAAAAAAAAAAAAAAAAAAAAAAAAAAAAAAAAAAAAAAAAAAAAAAAAAAAAAAAAAAAAAAAAAAAAAAAAAAAAAAAAAAAAAAAAAAAAAAAAAAAAAAAAAAAAAAAAAAAAAAAAAAAAAAAAAAAAAAAAAAAAAAAAAAAAAAAAAAAAAAAAAAAAAAAAAAAAAAAAAAAAAAAAAAAAAAAAAAAAAAAAAAAAAAAAAAAAAAAAAAAAAAAAAAAAAAAAAAAAAAAAAAAAAAAAAAAAAAAAAAAAAAAAAAAAAAAAAAAAAAAAAAAAAAAAAAAAAAAAAAAAAAAAAAAAAAAAAAAAAAAAAAAAAAAAAAAAAAAAAAAAAAAAAAAAAAAAAAAAAAAAAAAAAAAAAAAAAAAAAAAAAAAAAAAAAAAAAAAAAAAAAAAAAAAAAAAAAAAAAAAAAAAAAAAAAAAAAAAAAAAAAAAAAAAAAAAAAAAAAAAAAAAAAAAAAAAAAAAAAAAAAAAAAAAAAAAAAAAAAAAAAAAAAAAAAAAAAAAAAAAAAAAAAAAAAAAAAAAAAAAAAPZYQPKnbrCvS7LuKFGX0ejwOxhukZJZlRz0zWZEY9yQodgiSverb9dVXlf9dYRIq8d9x0dUHmcyY7sbSEmwapcJK1A=</c2pa:manifest></metadata>
<path d="M108.939 217.732C109.587 217.6 110.255 217.6 110.903 217.732L166.057 228.922C168.359 229.389 170.014 231.413 170.014 233.762V250.071C170.014 252.42 168.359 254.444 166.057 254.911L110.903 266.101C110.255 266.232 109.587 266.232 108.939 266.101L53.7842 254.911C51.4822 254.444 49.8277 252.42 49.8277 250.071V233.762C49.8277 231.413 51.4822 229.389 53.7842 228.922L108.939 217.732Z" fill="#F6F1E6" stroke="#7A7D82" stroke-width="0.68" stroke-linecap="round" stroke-dasharray="2 3"></path>
<line x1="0.34" y1="-0.34" x2="59.0725" y2="-0.34" transform="matrix(-0.980227 -0.197879 -0.853057 0.521817 109.921 241.917)" stroke="#7A7D82" stroke-width="0.68" stroke-linecap="round" stroke-dasharray="2 3"></line>
<line x1="110.201" y1="265.525" x2="110.201" y2="241.82" stroke="#7A7D82" stroke-width="0.68" stroke-linecap="round" stroke-dasharray="2 3"></line>
<line x1="0.34" y1="-0.34" x2="59.0725" y2="-0.34" transform="matrix(0.980227 -0.197879 0.853057 0.521817 109.921 241.917)" stroke="#7A7D82" stroke-width="0.68" stroke-linecap="round" stroke-dasharray="2 3"></line>
<path d="M195.977 236.251C196.625 236.12 197.293 236.12 197.941 236.251L253.096 247.441C255.398 247.908 257.053 249.932 257.053 252.281V268.59C257.053 270.939 255.398 272.963 253.096 273.43L197.941 284.62C197.293 284.752 196.625 284.752 195.977 284.62L140.823 273.43C138.521 272.963 136.866 270.939 136.866 268.59V252.281C136.866 249.932 138.521 247.908 140.823 247.441L195.977 236.251Z" fill="#F6F1E6" stroke="#7A7D82" stroke-width="0.68" stroke-linecap="round" stroke-dasharray="2 3"></path>
<line x1="0.34" y1="-0.34" x2="59.0725" y2="-0.34" transform="matrix(-0.980227 -0.197879 -0.853057 0.521817 196.959 260.436)" stroke="#7A7D82" stroke-width="0.68" stroke-linecap="round" stroke-dasharray="2 3"></line>
<line x1="197.239" y1="284.044" x2="197.239" y2="260.339" stroke="#7A7D82" stroke-width="0.68" stroke-linecap="round" stroke-dasharray="2 3"></line>
<line x1="0.34" y1="-0.34" x2="59.0725" y2="-0.34" transform="matrix(0.980227 -0.197879 0.853057 0.521817 196.959 260.436)" stroke="#7A7D82" stroke-width="0.68" stroke-linecap="round" stroke-dasharray="2 3"></line>
<path d="M108.939 181.311C109.587 181.18 110.255 181.18 110.903 181.311L166.057 192.501C168.359 192.968 170.014 194.992 170.014 197.341V213.65C170.014 215.999 168.359 218.023 166.057 218.49L110.903 229.68C110.255 229.812 109.587 229.812 108.939 229.68L53.7842 218.49C51.4822 218.023 49.8277 215.999 49.8277 213.65V197.341C49.8277 194.992 51.4822 192.968 53.7842 192.501L108.939 181.311Z" fill="#F6F1E6" stroke="#7A7D82" stroke-width="0.68" stroke-linecap="round" stroke-dasharray="2 3"></path>
<line x1="0.34" y1="-0.34" x2="59.0725" y2="-0.34" transform="matrix(-0.980227 -0.197879 -0.853057 0.521817 109.921 205.496)" stroke="#7A7D82" stroke-width="0.68" stroke-linecap="round" stroke-dasharray="2 3"></line>
<line x1="110.201" y1="229.104" x2="110.201" y2="205.4" stroke="#7A7D82" stroke-width="0.68" stroke-linecap="round" stroke-dasharray="2 3"></line>
<line x1="0.34" y1="-0.34" x2="59.0725" y2="-0.34" transform="matrix(0.980227 -0.197879 0.853057 0.521817 109.921 205.496)" stroke="#7A7D82" stroke-width="0.68" stroke-linecap="round" stroke-dasharray="2 3"></line>
<path d="M195.977 199.83C196.625 199.699 197.293 199.699 197.941 199.83L253.096 211.02C255.398 211.487 257.053 213.511 257.053 215.86V232.169C257.053 234.518 255.398 236.542 253.096 237.009L197.941 248.199C197.293 248.331 196.625 248.331 195.977 248.199L140.823 237.009C138.521 236.542 136.866 234.518 136.866 232.169V215.86C136.866 213.511 138.521 211.487 140.823 211.02L195.977 199.83Z" fill="#F6F1E6"></path>
<path d="M195.977 199.83C196.625 199.699 197.293 199.699 197.941 199.83L253.096 211.02C255.398 211.487 257.053 213.511 257.053 215.86V232.169C257.053 234.518 255.398 236.542 253.096 237.009L197.941 248.199C197.293 248.331 196.625 248.331 195.977 248.199L140.823 237.009C138.521 236.542 136.866 234.518 136.866 232.169V215.86C136.866 213.511 138.521 211.487 140.823 211.02L195.977 199.83Z" fill="#FF6028" fill-opacity="0.3"></path>
<path d="M195.977 199.83C196.625 199.699 197.293 199.699 197.941 199.83L253.096 211.02C255.398 211.487 257.053 213.511 257.053 215.86V232.169C257.053 234.518 255.398 236.542 253.096 237.009L197.941 248.199C197.293 248.331 196.625 248.331 195.977 248.199L140.823 237.009C138.521 236.542 136.866 234.518 136.866 232.169V215.86C136.866 213.511 138.521 211.487 140.823 211.02L195.977 199.83Z" stroke="#FF6028" stroke-width="0.68" stroke-linecap="round"></path>
<line y1="-0.34" x2="59.4125" y2="-0.34" transform="matrix(-0.980227 -0.197879 -0.853057 0.521817 196.959 224.015)" stroke="#FF6028" stroke-width="0.68"></line>
<line x1="197.239" y1="247.963" x2="197.239" y2="223.579" stroke="#FF6028" stroke-width="0.68"></line>
<line y1="-0.34" x2="59.4125" y2="-0.34" transform="matrix(0.980227 -0.197879 0.853057 0.521817 196.959 224.015)" stroke="#FF6028" stroke-width="0.68"></line>
<path d="M108.939 144.891C109.587 144.759 110.255 144.759 110.903 144.891L166.057 156.081C168.359 156.548 170.014 158.572 170.014 160.92V177.23C170.014 179.579 168.359 181.603 166.057 182.07L110.903 193.26C110.255 193.391 109.587 193.391 108.939 193.26L53.7842 182.07C51.4822 181.603 49.8277 179.579 49.8277 177.23V160.92C49.8277 158.572 51.4822 156.548 53.7842 156.081L108.939 144.891Z" fill="#F6F1E6" stroke="#7A7D82" stroke-width="0.68" stroke-linecap="round" stroke-dasharray="2 3"></path>
<line x1="0.34" y1="-0.34" x2="59.0725" y2="-0.34" transform="matrix(-0.980227 -0.197879 -0.853057 0.521817 109.921 169.075)" stroke="#7A7D82" stroke-width="0.68" stroke-linecap="round" stroke-dasharray="2 3"></line>
<line x1="110.201" y1="192.683" x2="110.201" y2="168.979" stroke="#7A7D82" stroke-width="0.68" stroke-linecap="round" stroke-dasharray="2 3"></line>
<line x1="0.34" y1="-0.34" x2="59.0725" y2="-0.34" transform="matrix(0.980227 -0.197879 0.853057 0.521817 109.921 169.075)" stroke="#7A7D82" stroke-width="0.68" stroke-linecap="round" stroke-dasharray="2 3"></line>
<path d="M195.977 163.41C196.625 163.278 197.293 163.278 197.941 163.41L253.096 174.6C255.398 175.067 257.053 177.091 257.053 179.439V195.749C257.053 198.098 255.398 200.122 253.096 200.589L197.941 211.779C197.293 211.91 196.625 211.91 195.977 211.779L140.823 200.589C138.521 200.122 136.866 198.098 136.866 195.749V179.439C136.866 177.091 138.521 175.067 140.823 174.6L195.977 163.41Z" fill="#F6F1E6" stroke="#7A7D82" stroke-width="0.68" stroke-linecap="round" stroke-dasharray="2 3"></path>
<line x1="0.34" y1="-0.34" x2="59.0725" y2="-0.34" transform="matrix(-0.980227 -0.197879 -0.853057 0.521817 196.959 187.594)" stroke="#7A7D82" stroke-width="0.68" stroke-linecap="round" stroke-dasharray="2 3"></line>
<line x1="197.239" y1="211.202" x2="197.239" y2="187.498" stroke="#7A7D82" stroke-width="0.68" stroke-linecap="round" stroke-dasharray="2 3"></line>
<line x1="0.34" y1="-0.34" x2="59.0725" y2="-0.34" transform="matrix(0.980227 -0.197879 0.853057 0.521817 196.959 187.594)" stroke="#7A7D82" stroke-width="0.68" stroke-linecap="round" stroke-dasharray="2 3"></line>
<path d="M108.939 108.468C109.587 108.336 110.255 108.336 110.903 108.468L166.057 119.658C168.359 120.125 170.014 122.149 170.014 124.498V140.807C170.014 143.156 168.359 145.18 166.057 145.647L110.903 156.837C110.255 156.968 109.587 156.968 108.939 156.837L53.7842 145.647C51.4822 145.18 49.8277 143.156 49.8277 140.807V124.498C49.8277 122.149 51.4822 120.125 53.7842 119.658L108.939 108.468Z" fill="#F6F1E6" stroke="#7A7D82" stroke-width="0.68" stroke-linecap="round" stroke-dasharray="2 3"></path>
<line x1="0.34" y1="-0.34" x2="59.0725" y2="-0.34" transform="matrix(-0.980227 -0.197879 -0.853057 0.521817 109.921 132.652)" stroke="#7A7D82" stroke-width="0.68" stroke-linecap="round" stroke-dasharray="2 3"></line>
<line x1="110.201" y1="156.261" x2="110.201" y2="132.556" stroke="#7A7D82" stroke-width="0.68" stroke-linecap="round" stroke-dasharray="2 3"></line>
<line x1="0.34" y1="-0.34" x2="59.0725" y2="-0.34" transform="matrix(0.980227 -0.197879 0.853057 0.521817 109.921 132.652)" stroke="#7A7D82" stroke-width="0.68" stroke-linecap="round" stroke-dasharray="2 3"></line>
<path d="M195.977 126.989C196.625 126.857 197.293 126.857 197.941 126.989L253.096 138.179C255.398 138.646 257.053 140.67 257.053 143.019V159.328C257.053 161.677 255.398 163.701 253.096 164.168L197.941 175.358C197.293 175.489 196.625 175.489 195.977 175.358L140.823 164.168C138.521 163.701 136.866 161.677 136.866 159.328V143.019C136.866 140.67 138.521 138.646 140.823 138.179L195.977 126.989Z" fill="#F6F1E6" stroke="#7A7D82" stroke-width="0.68" stroke-linecap="round" stroke-dasharray="2 3"></path>
<line x1="0.34" y1="-0.34" x2="59.0725" y2="-0.34" transform="matrix(-0.980227 -0.197879 -0.853057 0.521817 196.959 151.173)" stroke="#7A7D82" stroke-width="0.68" stroke-linecap="round" stroke-dasharray="2 3"></line>
<line x1="197.239" y1="174.782" x2="197.239" y2="151.077" stroke="#7A7D82" stroke-width="0.68" stroke-linecap="round" stroke-dasharray="2 3"></line>
<line x1="0.34" y1="-0.34" x2="59.0725" y2="-0.34" transform="matrix(0.980227 -0.197879 0.853057 0.521817 196.959 151.173)" stroke="#7A7D82" stroke-width="0.68" stroke-linecap="round" stroke-dasharray="2 3"></line>
<path d="M108.939 72.0469C109.587 71.9154 110.255 71.9154 110.903 72.0469L166.057 83.2368C168.359 83.7039 170.014 85.7278 170.014 88.0767V104.386C170.014 106.735 168.359 108.759 166.057 109.226L110.903 120.416C110.255 120.547 109.587 120.547 108.939 120.416L53.7842 109.226C51.4822 108.759 49.8277 106.735 49.8277 104.386V88.0767C49.8277 85.7278 51.4822 83.7039 53.7842 83.2368L108.939 72.0469Z" fill="#F6F1E6" stroke="#7A7D82" stroke-width="0.68" stroke-linecap="round" stroke-dasharray="2 3"></path>
<line x1="0.34" y1="-0.34" x2="59.0725" y2="-0.34" transform="matrix(-0.980227 -0.197879 -0.853057 0.521817 109.921 96.2314)" stroke="#7A7D82" stroke-width="0.68" stroke-linecap="round" stroke-dasharray="2 3"></line>
<line x1="110.201" y1="119.84" x2="110.201" y2="96.1354" stroke="#7A7D82" stroke-width="0.68" stroke-linecap="round" stroke-dasharray="2 3"></line>
<line x1="0.34" y1="-0.34" x2="59.0725" y2="-0.34" transform="matrix(0.980227 -0.197879 0.853057 0.521817 109.921 96.2314)" stroke="#7A7D82" stroke-width="0.68" stroke-linecap="round" stroke-dasharray="2 3"></line>
<path d="M109.557 36.2437C110.205 36.1122 110.872 36.1122 111.52 36.2437L166.675 47.4336C168.977 47.9006 170.632 49.9245 170.632 52.2735V68.5829C170.632 70.9318 168.977 72.9557 166.675 73.4228L111.52 84.6127C110.872 84.7442 110.205 84.7442 109.557 84.6127L54.4019 73.4228C52.0999 72.9557 50.4454 70.9318 50.4454 68.5829V52.2735C50.4454 49.9245 52.0999 47.9006 54.4019 47.4336L109.557 36.2437Z" fill="#F6F1E6"></path>
<path d="M109.557 36.2437C110.205 36.1122 110.872 36.1122 111.52 36.2437L166.675 47.4336C168.977 47.9006 170.632 49.9245 170.632 52.2735V68.5829C170.632 70.9318 168.977 72.9557 166.675 73.4228L111.52 84.6127C110.872 84.7442 110.205 84.7442 109.557 84.6127L54.4019 73.4228C52.0999 72.9557 50.4454 70.9318 50.4454 68.5829V52.2735C50.4454 49.9245 52.0999 47.9006 54.4019 47.4336L109.557 36.2437Z" fill="#FF6028" fill-opacity="0.3"></path>
<path d="M109.557 36.2437C110.205 36.1122 110.872 36.1122 111.52 36.2437L166.675 47.4336C168.977 47.9006 170.632 49.9245 170.632 52.2735V68.5829C170.632 70.9318 168.977 72.9557 166.675 73.4228L111.52 84.6127C110.872 84.7442 110.205 84.7442 109.557 84.6127L54.4019 73.4228C52.0999 72.9557 50.4454 70.9318 50.4454 68.5829V52.2735C50.4454 49.9245 52.0999 47.9006 54.4019 47.4336L109.557 36.2437Z" stroke="#FF6028" stroke-width="0.68" stroke-linecap="round"></path>
<line y1="-0.34" x2="59.4125" y2="-0.34" transform="matrix(-0.980227 -0.197879 -0.853057 0.521817 110.538 60.4282)" stroke="#FF6028" stroke-width="0.68"></line>
<line x1="110.818" y1="84.377" x2="110.818" y2="59.9921" stroke="#FF6028" stroke-width="0.68"></line>
<line y1="-0.34" x2="59.4125" y2="-0.34" transform="matrix(0.980227 -0.197879 0.853057 0.521817 110.538 60.4282)" stroke="#FF6028" stroke-width="0.68"></line>
<path d="M110.174 0.438475C110.822 0.307003 111.49 0.307003 112.138 0.438475L167.292 11.6284C169.594 12.0955 171.249 14.1194 171.249 16.4683V32.7777C171.249 35.1267 169.594 37.1506 167.292 37.6176L112.138 48.8075C111.49 48.939 110.822 48.939 110.174 48.8075L55.0191 37.6176C52.7171 37.1506 51.0626 35.1267 51.0626 32.7777V16.4683C51.0626 14.1194 52.7171 12.0955 55.0191 11.6284L110.174 0.438475Z" fill="#F6F1E6" stroke="#7A7D82" stroke-width="0.68" stroke-linecap="round" stroke-dasharray="2 3"></path>
<line x1="0.34" y1="-0.34" x2="59.0725" y2="-0.34" transform="matrix(-0.980227 -0.197879 -0.853057 0.521817 111.156 24.623)" stroke="#7A7D82" stroke-width="0.68" stroke-linecap="round" stroke-dasharray="2 3"></line>
<line x1="111.435" y1="48.2323" x2="111.435" y2="24.5275" stroke="#7A7D82" stroke-width="0.68" stroke-linecap="round" stroke-dasharray="2 3"></line>
<line x1="0.34" y1="-0.34" x2="59.0725" y2="-0.34" transform="matrix(0.980227 -0.197879 0.853057 0.521817 111.156 24.623)" stroke="#7A7D82" stroke-width="0.68" stroke-linecap="round" stroke-dasharray="2 3"></line>
<path d="M195.977 90.5664C196.625 90.4349 197.293 90.4349 197.941 90.5664L253.096 101.756C255.398 102.223 257.053 104.247 257.053 106.596V122.906C257.053 125.255 255.398 127.278 253.096 127.746L197.941 138.935C197.293 139.067 196.625 139.067 195.977 138.935L140.823 127.746C138.521 127.278 136.866 125.255 136.866 122.906V106.596C136.866 104.247 138.521 102.223 140.823 101.756L195.977 90.5664Z" fill="#F6F1E6" stroke="#7A7D82" stroke-width="0.68" stroke-linecap="round" stroke-dasharray="2 3"></path>
<line x1="0.34" y1="-0.34" x2="59.0725" y2="-0.34" transform="matrix(-0.980227 -0.197879 -0.853057 0.521817 196.959 114.751)" stroke="#7A7D82" stroke-width="0.68" stroke-linecap="round" stroke-dasharray="2 3"></line>
<line x1="197.239" y1="138.359" x2="197.239" y2="114.654" stroke="#7A7D82" stroke-width="0.68" stroke-linecap="round" stroke-dasharray="2 3"></line>
<line x1="0.34" y1="-0.34" x2="59.0725" y2="-0.34" transform="matrix(0.980227 -0.197879 0.853057 0.521817 196.959 114.751)" stroke="#7A7D82" stroke-width="0.68" stroke-linecap="round" stroke-dasharray="2 3"></line>
</svg>