<svg width="307" height="242" viewBox="0 0 307 242" fill="none" xmlns="http://www.w3.org/2000/svg" xmlns:c2pa="http://c2pa.org/manifest"><metadata><c2pa:manifest>AAAWgmp1bWIAAAAeanVtZGMycGEAEQAQgAAAqgA4m3EDYzJwYQAAABZcanVtYgAAAEdqdW1kYzJtYQARABCAAACqADibcQN1cm46YzJwYTo4NzBmYTk5MS0zZmM4LTQ2Y2QtOWFlYi1iYThkYzgxNGRhMWMAAAADl2p1bWIAAAApanVtZGMyYXMAEQAQgAAAqgA4m3EDYzJwYS5hc3NlcnRpb25zAAAAALxqdW1iAAAARGp1bWRjYm9yABEAEIAAAKoAOJtxE2MycGEuaW5ncmVkaWVudC52MwAAAAAYYzJzaK2TFPFUdNOpi63BqPX4rn8AAABwY2JvcqNpZGM6Zm9ybWF0bWltYWdlL3N2Zyt4bWxqaW5zdGFuY2VJRHgseG1wOmlpZDozMDc2NjExZC05ZTA1LTQ3MWEtODgyMi04ZDA1MmJkODY2ZTBscmVsYXRpb25zaGlwaHBhcmVudE9mAAAB4mp1bWIAAABBanVtZGNib3IAEQAQgAAAqgA4m3ETYzJwYS5hY3Rpb25zLnYyAAAAABhjMnNoTS9pfx5mjpIN5R1+kbNISwAAAZljYm9yomdhY3Rpb25zgqJmYWN0aW9ua2MycGEub3BlbmVkanBhcmFtZXRlcnOha2luZ3JlZGllbnRzgaJjdXJseC1zZWxmI2p1bWJmPWMycGEuYXNzZXJ0aW9ucy9jMnBhLmluZ3JlZGllbnQudjNkaGFzaFggAMw0d5gy65QwJPn95M2Lm9SL9bFL7/cGdPZivqEVkP2kZmFjdGlvbngdY29tLmFudGhyb3BpYy5jbGF1ZGUucHJvdmlkZWRqcGFyYW1ldGVyc6F4H2NvbS5hbnRocm9waWMub3JpZ2luLWNvbmZpZGVuY2VndW5rbm93bmtkZXNjcmlwdGlvbnhmQ2xhdWRlIHByb3ZpZGVkIHRoaXMgZmlsZSBhdCB0aGUgcmVxdWVzdCBvZiBhIHVzZXIgYW5kIG1heSBoYXZlIGNyZWF0ZWQgb3IgbW9kaWZpZWQgdGhlIGZpbGUgY29udGVudHMubXNvZnR3YXJlQWdlbnShZG5hbWVmQ2xhdWRlcmFsbEFjdGlvbnNJbmNsdWRlZPUAAADIanVtYgAAAEBqdW1kY2JvcgARABCAAACqADibcRNjMnBhLmhhc2guZGF0YQAAAAAYYzJzaB6+iRqRa69eqFyAP6Jn/wsAAACAY2JvcqVjYWxnZnNoYTI1NmNwYWRNAAAAAAAAAAAAAAAAAGRoYXNoWCDzxaxJ+H+tS53BZxfUxclsUPn8VBYmqX2a51bDtWrRVWRuYW1lbmp1bWJmIG1hbmlmZXN0amV4Y2x1c2lvbnOBomVzdGFydBiiZmxlbmd0aBkeBAAAAj5qdW1iAAAAJ2p1bWRjMmNsABEAEIAAAKoAOJtxA2MycGEuY2xhaW0udjIAAAACD2Nib3KlY2FsZ2ZzaGEyNTZpc2lnbmF0dXJleE1zZWxmI2p1bWJmPS9jMnBhL3VybjpjMnBhOjg3MGZhOTkxLTNmYzgtNDZjZC05YWViLWJhOGRjODE0ZGExYy9jMnBhLnNpZ25hdHVyZWppbnN0YW5jZUlEeCx4bXA6aWlkOmMyYzE4YWNmLWYzYTQtNGJiNC1iYTk1LWJmMDkyY2ExNDUxMnJjcmVhdGVkX2Fzc2VydGlvbnODomN1cmx4LXNlbGYjanVtYmY9YzJwYS5hc3NlcnRpb25zL2MycGEuaW5ncmVkaWVudC52M2RoYXNoWCAAzDR3mDLrlDAk+f3kzYub1Iv1sUvv9wZ09mK+oRWQ/aJjdXJseCpzZWxmI2p1bWJmPWMycGEuYXNzZXJ0aW9ucy9jMnBhLmFjdGlvbnMudjJkaGFzaFggsPCjipT0rPZjlg4wWo5sKOj4iy++5xFqic/NdIoAiS2iY3VybHgpc2VsZiNqdW1iZj1jMnBhLmFzc2VydGlvbnMvYzJwYS5oYXNoLmRhdGFkaGFzaFgg2NZgEkGa40cyfAZAKdK6OI5NBf84RehhlXMoAPspkA90Y2xhaW1fZ2VuZXJhdG9yX2luZm+jZG5hbWVvQW50aHJvcGljIEZpbGVzZ3ZlcnNpb25lMS4wLjBrc3BlY1ZlcnNpb25lMi40LjAAABA4anVtYgAAAChqdW1kYzJjcwARABCAAACqADibcQNjMnBhLnNpZ25hdHVyZQAAABAIY2JvctKEWQISogEmGCFZAgowggIGMIIBjaADAgECAhRA5aAK7sI50L64g/oGQgU9Z1UTADAKBggqhkjOPQQDAzBJMRcwFQYDVQQKEw5BbnRocm9waWMsIFBCQzEuMCwGA1UEAxMlQW50aHJvcGljIENvbnRlbnQgQ3JlZGVudGlhbHMgUm9vdCBDQTAeFw0yNjA4MDcxODQzNTZaFw0yODA4MDYxOTQzNTZaMEQxFzAVBgNVBAoTDkFudGhyb3BpYywgUEJDMSkwJwYDVQQDEyBBbnRocm9waWMgQ2xhdWRlIENvbnRlbnQgU2lnbmluZzBZMBMGByqGSM49AgEGCCqGSM49AwEHA0IABJh6CmvLUBgFFNU0vUKlOVtE6djd17L5SuwX0LemFisBM3dkd/3cyjxFA3Qo5S46fX0/ihY0VZ7mfb9KF703t5OjWDBWMA4GA1UdDwEB/wQEAwIHgDAVBgNVHSUEDjAMBgorBgEEAYPoXgIBMAwGA1UdEwEB/wQCMAAwHwYDVR0jBBgwFoAUzlHiBIFOZFsj+OPEz5o+nMHXXMIwCgYIKoZIzj0EAwMDZwAwZAIwMXMdFJ4BetLLVY7ORuE9noqbbAZOZn/aArXyTwFAZfKrPzxF2vPoJNf1+UCdg1XGAjBwX1zd9WGqYkqmL5SFqw1QySjr1zJfpJM9+1rdDwSPLMOPOjKuiXjoU/pUUeG9RwmhY3BhZFkNngAAAAAAAAAAAAAAAAAAAAAAAAAAAAAAAAAAAAAAAAAAAAAAAAAAAAAAAAAAAAAAAAAAAAAAAAAAAAAAAAAAAAAAAAAAAAAAAAAAAAAAAAAAAAAAAAAAAAAAAAAAAAAAAAAAAAAAAAAAAAAAAAAAAAAAAAAAAAAAAAAAAAAAAAAAAAAAAAAAAAAAAAAAAAAAAAAAAAAAAAAAAAAAAAAAAAAAAAAAAAAAAAAAAAAAAAAAAAAAAAAAAAAAAAAAAAAAAAAAAAAAAAAAAAAAAAAAAAAAAAAAAAAAAAAAAAAAAAAAAAAAAAAAAAAAAAAAAAAAAAAAAAAAAAAAAAAAAAAAAAAAAAAAAAAAAAAAAAAAAAAAAAAAAAAAAAAAAAAAAAAAAAAAAAAAAAAAAAAAAAAAAAAAAAAAAAAAAAAAAAAAAAAAAAAAAAAAAAAAAAAAAAAAAAAAAAAAAAAAAAAAAAAAAAAAAAAAAAAAAAAAAAAAAAAAAAAAAAAAAAAAAAAAAAAAAAAAAAAAAAAAAAAAAAAAAAAAAAAAAAAAAAAAAAAAAAAAAAAAAAAAAAAAAAAAAAAAAAAAAAAAAAAAAAAAAAAAAAAAAAAAAAAAAAAAAAAAAAAAAAAAAAAAAAAAAAAAAAAAAAAAAAAAAAAAAAAAAAAAAAAAAAAAAAAAAAAAAAAAAAAAAAAAAAAAAAAAAAAAAAAAAAAAAAAAAAAAAAAAAAAAAAAAAAAAAAAAAAAAAAAAAAAAAAAAAAAAAAAAAAAAAAAAAAAAAAAAAAAAAAAAAAAAAAAAAAAAAAAAAAAAAAAAAAAAAAAAAAAAAAAAAAAAAAAAAAAAAAAAAAAAAAAAAAAAAAAAAAAAAAAAAAAAAAAAAAAAAAAAAAAAAAAAAAAAAAAAAAAAAAAAAAAAAAAAAAAAAAAAAAAAAAAAAAAAAAAAAAAAAAAAAAAAAAAAAAAAAAAAAAAAAAAAAAAAAAAAAAAAAAAAAAAAAAAAAAAAAAAAAAAAAAAAAAAAAAAAAAAAAAAAAAAAAAAAAAAAAAAAAAAAAAAAAAAAAAAAAAAAAAAAAAAAAAAAAAAAAAAAAAAAAAAAAAAAAAAAAAAAAAAAAAAAAAAAAAAAAAAAAAAAAAAAAAAAAAAAAAAAAAAAAAAAAAAAAAAAAAAAAAAAAAAAAAAAAAAAAAAAAAAAAAAAAAAAAAAAAAAAAAAAAAAAAAAAAAAAAAAAAAAAAAAAAAAAAAAAAAAAAAAAAAAAAAAAAAAAAAAAAAAAAAAAAAAAAAAAAAAAAAAAAAAAAAAAAAAAAAAAAAAAAAAAAAAAAAAAAAAAAAAAAAAAAAAAAAAAAAAAAAAAAAAAAAAAAAAAAAAAAAAAAAAAAAAAAAAAAAAAAAAAAAAAAAAAAAAAAAAAAAAAAAAAAAAAAAAAAAAAAAAAAAAAAAAAAAAAAAAAAAAAAAAAAAAAAAAAAAAAAAAAAAAAAAAAAAAAAAAAAAAAAAAAAAAAAAAAAAAAAAAAAAAAAAAAAAAAAAAAAAAAAAAAAAAAAAAAAAAAAAAAAAAAAAAAAAAAAAAAAAAAAAAAAAAAAAAAAAAAAAAAAAAAAAAAAAAAAAAAAAAAAAAAAAAAAAAAAAAAAAAAAAAAAAAAAAAAAAAAAAAAAAAAAAAAAAAAAAAAAAAAAAAAAAAAAAAAAAAAAAAAAAAAAAAAAAAAAAAAAAAAAAAAAAAAAAAAAAAAAAAAAAAAAAAAAAAAAAAAAAAAAAAAAAAAAAAAAAAAAAAAAAAAAAAAAAAAAAAAAAAAAAAAAAAAAAAAAAAAAAAAAAAAAAAAAAAAAAAAAAAAAAAAAAAAAAAAAAAAAAAAAAAAAAAAAAAAAAAAAAAAAAAAAAAAAAAAAAAAAAAAAAAAAAAAAAAAAAAAAAAAAAAAAAAAAAAAAAAAAAAAAAAAAAAAAAAAAAAAAAAAAAAAAAAAAAAAAAAAAAAAAAAAAAAAAAAAAAAAAAAAAAAAAAAAAAAAAAAAAAAAAAAAAAAAAAAAAAAAAAAAAAAAAAAAAAAAAAAAAAAAAAAAAAAAAAAAAAAAAAAAAAAAAAAAAAAAAAAAAAAAAAAAAAAAAAAAAAAAAAAAAAAAAAAAAAAAAAAAAAAAAAAAAAAAAAAAAAAAAAAAAAAAAAAAAAAAAAAAAAAAAAAAAAAAAAAAAAAAAAAAAAAAAAAAAAAAAAAAAAAAAAAAAAAAAAAAAAAAAAAAAAAAAAAAAAAAAAAAAAAAAAAAAAAAAAAAAAAAAAAAAAAAAAAAAAAAAAAAAAAAAAAAAAAAAAAAAAAAAAAAAAAAAAAAAAAAAAAAAAAAAAAAAAAAAAAAAAAAAAAAAAAAAAAAAAAAAAAAAAAAAAAAAAAAAAAAAAAAAAAAAAAAAAAAAAAAAAAAAAAAAAAAAAAAAAAAAAAAAAAAAAAAAAAAAAAAAAAAAAAAAAAAAAAAAAAAAAAAAAAAAAAAAAAAAAAAAAAAAAAAAAAAAAAAAAAAAAAAAAAAAAAAAAAAAAAAAAAAAAAAAAAAAAAAAAAAAAAAAAAAAAAAAAAAAAAAAAAAAAAAAAAAAAAAAAAAAAAAAAAAAAAAAAAAAAAAAAAAAAAAAAAAAAAAAAAAAAAAAAAAAAAAAAAAAAAAAAAAAAAAAAAAAAAAAAAAAAAAAAAAAAAAAAAAAAAAAAAAAAAAAAAAAAAAAAAAAAAAAAAAAAAAAAAAAAAAAAAAAAAAAAAAAAAAAAAAAAAAAAAAAAAAAAAAAAAAAAAAAAAAAAAAAAAAAAAAAAAAAAAAAAAAAAAAAAAAAAAAAAAAAAAAAAAAAAAAAAAAAAAAAAAAAAAAAAAAAAAAAAAAAAAAAAAAAAAAAAAAAAAAAAAAAAAAAAAAAAAAAAAAAAAAAAAAAAAAAAAAAAAAAAAAAAAAAAAAAAAAAAAAAAAAAAAAAAAAAAAAAAAAAAAAAAAAAAAAAAAAAAAAAAAAAAAAAAAAAAAAAAAAAAAAAAAAAAAAAAAAAAAAAAAAAAAAAAAAAAAAAAAAAAAAAAAAAAAAAAAAAAAAAAAAAAAAAAAAAAAAAAAAAAAAAAAAAAAAAAAAAAAAAAAAAAAAAAAAAAAAAAAAAAAAAAAAAAAAAAAAAAAAAAAAAAAAAAAAAAAAAAAAAAAAAAAAAAAAAAAAAAAAAAAAAAAAAAAAAAAAAAAAAAAAAAAAAAAAAAAAAAAAAAAAAAAAAAAAAAAAAAAAAAAAAAAAAAAAAAAAAAAAAAAAAAAAAAAAAAAAAAAAAAAAAAAAAAAAAAAAAAAAAAAAAAAAAAAAAAAAAAAAAAAAAAAAAAAAAAAAAAAAAAAAAAAAAAAAAAAAAAAAAAAAAAAAAAAAAAAAAAAAAAAAAAAAAAAAAAAAAAAAAAAAAAAAAAAAAAAAAAAAAAAAAAAAAAAAAAAAAAAAAAAAAAAAAAAAAAAAAAAAAAAAAAAAAAAAAAAAAAAAAAAAAAAAAAAAAAAAAAAAAAAAAAAAAAAAAAAAAAAAAAAAAAAAAAAAAAAAAAAAAAAAAAAAAAAAAAAAAAAAAAAAAAAAAAAAAAAAAAAAAAAAAAAAAAAAAAAAAAAAAAAAAAAAAAAAAAAAAAAAAAAAAAAAAAAAAAAAAAAAAAAAAAAAAAAAAAAAAAAAAAAAAAAAAAAAAAAAAAAAAAAAAAAAAAAAAAAAAAAAAAAAAAAAAAAAAAAAAAAAAAAAAAAAAAAAAAAAAAAAAAAAAAAAAAAAAAAAAAAAAAAAAAAAAAAAAAAAAAAAAAAAAAAAAAAAAAAAAAAAAAAAAAAAAAAAAAAAAAAAAAAAAAAAAAAAAAAAAAAAAAAAAAAAAAAAAAAAAAAAAAAAAAAAAAAAAAAAAAAAAAAAAAAAAAAAAAAAAAAAAAAAAAAAAAAAAAAAAAAAAAAAAAAAAAAAAAAAAAAAAAAAAAAAAAAAAAAAAAAAAAAAAAAAAAAAAAAAAAAAAAAAAAAAAAAAAAAAAAAAAAAAAAAAAAAAAAAAAAAAAAAAAAAAAAAAAAAAAAAAAAAAAAAAAAAAAAAAAAAAAAAAAAAAAAAAAAAAAAAAAAAAAAAAAAAAAAAAAAAAAAAAAAAAAAAAAAAAAAAAAAAAAAAAAAAAAAAAAAAAAAAAAAAAAAAAAAAAAAAAAAAAAAAAAAAAAAAAAAAAAAAAAAAAAAAAAAAAAAAAAAAAAAAAAAAAAAAAAAAAAAAAAAAAAAAAAAAAAAAAAAAAAAAAAAAAAAAAAAAAAAAAAAAAAAAAAAAAAAAAAAAAAAAAAAAAAAAAAAAAAAAAAAAAAAAAAAAAAAAAAAAAAAAAAAAAAAAAAAAAAAAAAAAAAAAAAAAAAAAAAAAAAAAAAAAAAAAAAAAAAAAAAAAAAAAAAAAAAAAAAAAAAAAAAAAAAAAAAAAAAAAAAAAAAAAAAAAAAAAAAAAAAAAAAAAAAAAAAAAAAAAAAAAAAAAAAAAAAAAAAAAAAAAAAAAAAAAAAAAAAAAAAAAAAAAAAAAAAAAAAAAAAAAAAAAAAAAAAAAAAAAAAAAAAAAAAAAAAAAAAAAAAAAAAAAAAAAAAAAAAAAAAAAAAAAAAAAAAAAAAAAAAAAAAAAAAAAAAAAAAAAAAAAAAAAAAAAAAAAAAAAAAAAAAAAAAAAAAAAAAAAAAPZYQBlvJ5QmHg9D5UPwJdegUBr85BwBxbxngvldsF9SNzXr6FG0VtRlJOpw0+03HVYWsCg3oZl3XYrBfqPxGMc4iBU=</c2pa:manifest></metadata>
<rect width="306" height="241" transform="translate(0.459961 0.359863)" fill="#F6F1E4"></rect>
<path d="M152.479 151.559L4.41898 181.558C2.11564 182.024 0.459961 184.049 0.459961 186.399V208.755C0.459961 211.134 2.15616 213.176 4.49533 213.612L152.532 241.187C153.145 241.301 153.774 241.298 154.387 241.178L302.47 212.142C304.788 211.688 306.46 209.656 306.46 207.294V186.399C306.46 184.049 304.804 182.024 302.501 181.558L154.441 151.559C153.794 151.427 153.126 151.427 152.479 151.559Z" fill="#F6F1E4" stroke="#7A7D82" stroke-width="0.68" stroke-linecap="round" stroke-dasharray="2.3 2.88"></path>
<path d="M2.45996 183.86L152.522 212.68C153.142 212.799 153.778 212.798 154.398 212.677L304.96 183.36" stroke="#7A7D82" stroke-width="0.68" stroke-linecap="round" stroke-dasharray="2.3 2.88"></path>
<path d="M153.46 212.86V241.36" stroke="#7A7D82" stroke-width="0.68" stroke-linecap="round" stroke-dasharray="2.3 2.88"></path>
<circle cx="11.139" cy="11.139" r="11.139" transform="matrix(0.866025 0.5 -0.866025 0.5 183.753 176.36)" stroke="#FF6028" stroke-opacity="0.3" stroke-width="0.68" stroke-linecap="round" stroke-dasharray="2.3 2.88"></circle>
<circle cx="6.10848" cy="6.10848" r="6.10848" transform="matrix(0.866025 0.5 -0.866025 0.5 183.753 181.389)" fill="#FF6028" fill-opacity="0.3"></circle>
<circle cx="11.139" cy="11.139" r="11.139" transform="matrix(0.866025 0.5 -0.866025 0.5 80.7532 169.36)" stroke="#FF6028" stroke-opacity="0.3" stroke-width="0.68" stroke-linecap="round" stroke-dasharray="2.3 2.88"></circle>
<circle cx="6.10848" cy="6.10848" r="6.10848" transform="matrix(0.866025 0.5 -0.866025 0.5 80.7532 174.389)" fill="#FF6028" fill-opacity="0.3"></circle>
<path d="M152.479 101.559L4.41898 131.558C2.11564 132.024 0.459961 134.049 0.459961 136.399V158.755C0.459961 161.134 2.15616 163.176 4.49533 163.612L152.532 191.187C153.145 191.301 153.774 191.298 154.387 191.178L302.47 162.142C304.788 161.688 306.46 159.656 306.46 157.294V136.399C306.46 134.049 304.804 132.024 302.501 131.558L154.441 101.559C153.794 101.427 153.126 101.427 152.479 101.559Z" fill="#F6F1E4" stroke="#7A7D82" stroke-width="0.68" stroke-linecap="round" stroke-dasharray="2.3 2.88"></path>
<path d="M2.45996 133.86L152.522 162.68C153.142 162.799 153.778 162.798 154.398 162.677L304.96 133.36" stroke="#7A7D82" stroke-width="0.68" stroke-linecap="round" stroke-dasharray="2.3 2.88"></path>
<path d="M153.46 162.86V191.36" stroke="#7A7D82" stroke-width="0.68" stroke-linecap="round" stroke-dasharray="2.3 2.88"></path>
<circle cx="11.139" cy="11.139" r="11.139" transform="matrix(0.866025 0.5 -0.866025 0.5 135.753 129.36)" stroke="#FF6028" stroke-opacity="0.3" stroke-width="0.68" stroke-linecap="round" stroke-dasharray="2.3 2.88"></circle>
<circle cx="6.10848" cy="6.10848" r="6.10848" transform="matrix(0.866025 0.5 -0.866025 0.5 135.753 134.389)" fill="#FF6028" fill-opacity="0.3"></circle>
<circle cx="11.139" cy="11.139" r="11.139" transform="matrix(0.866025 0.5 -0.866025 0.5 239.753 116.36)" stroke="#FF6028" stroke-opacity="0.3" stroke-width="0.68" stroke-linecap="round" stroke-dasharray="2.3 2.88"></circle>
<circle cx="6.10848" cy="6.10848" r="6.10848" transform="matrix(0.866025 0.5 -0.866025 0.5 239.753 121.389)" fill="#FF6028" fill-opacity="0.3"></circle>
<path d="M152.479 51.5586L4.41898 81.5577C2.11564 82.0244 0.459961 84.0492 0.459961 86.3993V108.755C0.459961 111.134 2.15616 113.176 4.49533 113.612L152.532 141.187C153.145 141.301 153.774 141.298 154.387 141.178L302.47 112.142C304.788 111.688 306.46 109.656 306.46 107.294V86.3993C306.46 84.0492 304.804 82.0244 302.501 81.5577L154.441 51.5586C153.794 51.4274 153.126 51.4275 152.479 51.5586Z" fill="#F6F1E4" stroke="#7A7D82" stroke-width="0.68" stroke-linecap="round" stroke-dasharray="2.3 2.88"></path>
<path d="M2.45996 83.8599L152.522 112.68C153.142 112.799 153.778 112.798 154.398 112.677L304.96 83.3599" stroke="#7A7D82" stroke-width="0.68" stroke-linecap="round" stroke-dasharray="2.3 2.88"></path>
<path d="M153.46 112.86V141.36" stroke="#7A7D82" stroke-width="0.68" stroke-linecap="round" stroke-dasharray="2.3 2.88"></path>
<circle cx="11.139" cy="11.139" r="11.139" transform="matrix(0.866025 0.5 -0.866025 0.5 114.753 76.3599)" stroke="#FF6028" stroke-opacity="0.3" stroke-width="0.68" stroke-linecap="round" stroke-dasharray="2.3 2.88"></circle>
<circle cx="6.10848" cy="6.10848" r="6.10848" transform="matrix(0.866025 0.5 -0.866025 0.5 114.753 81.3892)" fill="#FF6028" fill-opacity="0.3"></circle>
<circle cx="11.139" cy="11.139" r="11.139" transform="matrix(0.866025 0.5 -0.866025 0.5 222.753 57.3599)" stroke="#FF6028" stroke-opacity="0.3" stroke-width="0.68" stroke-linecap="round" stroke-dasharray="2.3 2.88"></circle>
<circle cx="6.10848" cy="6.10848" r="6.10848" transform="matrix(0.866025 0.5 -0.866025 0.5 222.753 62.3892)" fill="#FF6028" fill-opacity="0.3"></circle>
<path d="M152.479 0.558625L4.41898 30.5577C2.11564 31.0244 0.459961 33.0492 0.459961 35.3993V57.7551C0.459961 60.1345 2.15616 62.1758 4.49533 62.6115L152.532 90.1869C153.145 90.3012 153.774 90.2982 154.387 90.1781L302.47 61.1421C304.788 60.6877 306.46 58.6562 306.46 56.2944V35.3993C306.46 33.0492 304.804 31.0244 302.501 30.5577L154.441 0.558624C153.794 0.42745 153.126 0.427451 152.479 0.558625Z" fill="#F6F1E4"></path>
<path d="M152.479 0.558625L4.41898 30.5577C2.11564 31.0244 0.459961 33.0492 0.459961 35.3993V57.7551C0.459961 60.1345 2.15616 62.1758 4.49533 62.6115L152.532 90.1869C153.145 90.3012 153.774 90.2982 154.387 90.1781L302.47 61.1421C304.788 60.6877 306.46 58.6562 306.46 56.2944V35.3993C306.46 33.0492 304.804 31.0244 302.501 30.5577L154.441 0.558624C153.794 0.42745 153.126 0.427451 152.479 0.558625Z" fill="#FF6028" fill-opacity="0.3"></path>
<path d="M152.479 0.558625L4.41898 30.5577C2.11564 31.0244 0.459961 33.0492 0.459961 35.3993V57.7551C0.459961 60.1345 2.15616 62.1758 4.49533 62.6115L152.532 90.1869C153.145 90.3012 153.774 90.2982 154.387 90.1781L302.47 61.1421C304.788 60.6877 306.46 58.6562 306.46 56.2944V35.3993C306.46 33.0492 304.804 31.0244 302.501 30.5577L154.441 0.558624C153.794 0.42745 153.126 0.427451 152.479 0.558625Z" stroke="#FF6028" stroke-width="0.92" stroke-linecap="round"></path>
<path d="M2.45996 32.8599L152.522 61.6797C153.142 61.7987 153.778 61.7979 154.398 61.6773L304.96 32.3599" stroke="#FF6028" stroke-width="0.92" stroke-linecap="round"></path>
<path d="M153.46 61.8599V90.3599" stroke="#FF6028" stroke-width="0.92" stroke-linecap="round"></path>
</svg>